<?xml version="1.0" standalone="no"?>
<!DOCTYPE svg PUBLIC "-//W3C//DTD SVG 20010904//EN"
 "http://www.w3.org/TR/2001/REC-SVG-20010904/DTD/svg10.dtd">
<svg version="1.0" xmlns="http://www.w3.org/2000/svg"
 width="6144.000000pt" height="2048.000000pt" viewBox="0 0 6144.000000 2048.000000"
 preserveAspectRatio="xMidYMid meet">

<g transform="translate(0.000000,2048.000000) scale(0.100000,-0.100000)"
fill="#000000" stroke="none">
<path d="M18643 18615 l-23 -24 0 -8332 0 -8332 28 -23 c35 -30 57 -30 87 1
l25 24 0 8331 0 8331 -25 24 c-30 31 -63 31 -92 0z"/>
<path d="M8740 17669 c-43 -8 -274 -46 -550 -90 -69 -11 -150 -24 -180 -29
-30 -5 -113 -19 -185 -30 -71 -11 -155 -25 -185 -30 -66 -11 -287 -47 -385
-61 -38 -6 -90 -15 -115 -19 -25 -5 -74 -13 -110 -19 -36 -6 -150 -24 -255
-41 -104 -17 -219 -35 -255 -41 -36 -5 -91 -14 -122 -19 -32 -6 -84 -14 -115
-20 -32 -5 -87 -14 -123 -19 -36 -6 -108 -18 -160 -26 -52 -9 -122 -20 -155
-25 -101 -14 -125 -22 -125 -38 0 -17 2708 -2732 2725 -2732 6 0 32 82 57 183
48 188 129 506 244 955 36 141 70 273 74 292 4 19 32 125 60 235 29 110 55
212 57 227 6 34 19 44 68 57 22 5 73 19 113 30 88 26 171 48 322 90 63 17 153
42 200 55 47 13 121 33 165 45 44 12 84 27 90 32 6 6 -176 195 -510 529 -519
519 -520 520 -560 519 -22 -1 -60 -5 -85 -10z"/>
<path d="M10310 16590 c-52 -15 -149 -42 -215 -60 -66 -18 -165 -45 -220 -60
-55 -15 -154 -42 -220 -60 -66 -18 -165 -45 -220 -60 -55 -15 -138 -38 -185
-50 -121 -32 -153 -43 -167 -55 -11 -9 -56 -165 -83 -285 -8 -33 -35 -138
-109 -422 -129 -491 -183 -701 -191 -738 -4 -19 -27 -107 -50 -195 -55 -210
-92 -352 -132 -508 l-32 -128 436 -437 c239 -240 1357 -1361 2484 -2490 1127
-1130 2479 -2485 3004 -3011 726 -728 975 -972 1037 -1015 266 -185 529 -281
836 -304 349 -26 696 63 992 253 168 108 376 313 493 488 185 273 272 566 272
913 0 84 -4 175 -9 201 -5 26 -15 80 -21 118 -47 263 -189 535 -405 782 -12
13 -2702 2709 -5325 5336 -1639 1641 -1817 1817 -1845 1816 -16 -1 -73 -13
-125 -29z m1377 -2965 c1050 -1053 1914 -1915 1920 -1915 5 0 18 9 29 21 10
12 40 32 66 45 57 29 145 32 204 8 48 -19 1571 -1534 1612 -1603 50 -84 32
-223 -37 -285 -12 -11 -21 -26 -21 -35 0 -8 103 -119 228 -246 142 -143 235
-245 247 -270 27 -58 30 -115 10 -176 -16 -46 -37 -74 -153 -191 -149 -152
-190 -178 -276 -178 -97 0 -121 18 -371 269 -126 127 -236 231 -244 231 -8 0
-32 -18 -54 -40 -60 -61 -109 -83 -189 -82 -54 0 -77 5 -110 25 -24 14 -388
371 -810 794 -802 803 -797 798 -813 898 -9 58 25 143 81 202 25 25 44 52 42
59 -3 13 -1056 1074 -2571 2591 l-921 922 11 48 c7 26 19 77 27 113 8 36 22
97 31 135 9 39 22 97 30 130 8 33 21 89 29 125 8 36 25 108 36 160 28 123 40
160 50 160 4 0 867 -862 1917 -1915z m4806 -4925 c207 -33 355 -237 318 -436
-16 -91 -46 -150 -106 -210 -73 -73 -150 -108 -250 -112 -101 -5 -178 16 -243
66 -59 45 -61 47 -99 103 -71 103 -82 258 -28 373 60 126 189 213 335 225 8 0
41 -3 73 -9z"/>
<path d="M13733 11547 c-64 -55 -567 -566 -580 -590 -16 -28 -16 -56 0 -84 17
-31 136 -153 149 -153 5 0 167 158 359 351 285 288 347 355 339 369 -5 9 -39
44 -75 78 -60 56 -70 62 -109 62 -35 0 -52 -7 -83 -33z"/>
<path d="M13728 11003 c-191 -191 -348 -353 -348 -359 0 -15 178 -194 193
-194 14 0 707 690 707 704 0 12 -182 196 -194 196 -6 0 -167 -156 -358 -347z"/>
<path d="M14000 10728 c-192 -194 -350 -355 -350 -359 0 -16 181 -189 199
-189 12 0 140 123 358 345 186 189 340 350 342 356 3 11 -150 173 -181 190
-15 8 -75 -48 -368 -343z"/>
<path d="M14267 10452 c-191 -191 -347 -351 -347 -356 0 -11 185 -196 196
-196 16 0 704 694 704 710 0 20 -170 190 -190 190 -8 0 -172 -157 -363 -348z"/>
<path d="M14547 10182 c-191 -191 -347 -354 -347 -362 0 -18 173 -190 192
-190 11 0 657 642 696 692 12 15 3 28 -81 113 -52 52 -98 95 -103 95 -5 0
-165 -156 -357 -348z"/>
<path d="M14817 9912 c-191 -191 -347 -353 -347 -359 0 -20 109 -130 146 -148
68 -32 75 -27 391 288 161 160 300 306 309 325 26 55 13 88 -68 170 -40 39
-75 72 -78 72 -3 0 -162 -157 -353 -348z"/>
<path d="M3315 15584 c-67 -11 -174 -48 -246 -85 -193 -100 -328 -267 -391
-485 l-23 -79 0 -5685 c0 -4669 2 -5698 13 -5755 38 -199 73 -309 153 -470
230 -467 714 -802 1231 -850 112 -11 11326 -7 11388 4 256 44 481 227 578 471
104 262 74 518 -86 745 -47 66 -1232 1255 -1252 1255 -8 0 -238 -222 -510
-494 -438 -437 -500 -496 -537 -506 -66 -17 -117 1 -179 64 -66 65 -82 116
-60 184 14 41 75 106 506 537 269 269 490 497 490 505 0 16 -859 880 -875 880
-5 0 -230 -220 -500 -488 -542 -540 -528 -529 -623 -503 -52 14 -121 73 -147
127 -17 37 -20 100 -4 141 5 15 228 246 495 513 266 267 484 492 484 500 0 8
-195 210 -434 449 -379 379 -436 432 -452 423 -11 -6 -230 -223 -489 -482
-287 -287 -483 -477 -504 -486 -43 -18 -89 -18 -133 0 -39 17 -114 93 -128
132 -15 39 -12 96 8 132 9 18 232 249 495 512 411 411 477 481 468 497 -5 10
-203 211 -440 447 l-431 430 -26 -25 c-15 -13 -228 -225 -474 -471 -246 -246
-463 -456 -481 -467 -41 -25 -117 -28 -158 -6 -16 8 -49 37 -74 65 -52 58 -65
104 -47 171 10 39 62 95 491 524 263 264 479 485 479 490 0 16 -864 875 -880
875 -8 0 -224 -210 -480 -466 -256 -256 -477 -472 -492 -480 -35 -18 -121 -18
-157 0 -43 23 -109 101 -120 144 -13 48 -5 97 23 137 11 17 227 236 478 487
252 252 458 464 458 471 0 17 -862 877 -879 877 -7 0 -203 -190 -435 -422
-231 -232 -447 -445 -478 -474 -64 -57 -108 -71 -172 -53 -42 12 -120 77 -142
120 -18 36 -18 122 0 157 8 15 222 234 475 487 254 253 461 467 461 475 0 16
-859 880 -875 880 -5 0 -219 -209 -475 -464 -415 -414 -470 -466 -509 -476
-67 -18 -113 -5 -171 47 -28 25 -57 58 -65 74 -23 44 -19 116 9 163 14 23 215
231 448 463 233 232 436 435 453 452 l29 31 -439 440 c-242 242 -444 440 -449
440 -5 0 -213 -204 -463 -452 -249 -249 -468 -461 -485 -470 -66 -36 -145 -18
-213 50 -63 62 -81 133 -51 203 9 21 194 213 470 489 251 250 456 459 456 465
0 16 -864 875 -880 875 -8 0 -219 -204 -470 -454 -421 -419 -458 -454 -501
-464 -51 -13 -90 -5 -142 27 -56 34 -107 116 -107 171 0 69 26 99 478 552 246
246 449 453 451 459 4 13 -1046 1068 -1134 1138 -143 115 -269 161 -450 166
-66 2 -133 1 -150 -1z m4837 -7925 c2054 -2054 2728 -2733 2717 -2740 -16 -10
-5410 -13 -5446 -3 l-23 6 0 2734 c0 1940 3 2734 11 2734 6 0 1239 -1229 2741
-2731z"/>
<path d="M23245 13200 c-174 -8 -277 -25 -343 -59 -20 -10 -75 -31 -122 -46
-73 -23 -92 -35 -136 -79 -28 -28 -62 -61 -76 -74 -39 -33 -99 -245 -118 -412
-8 -66 -10 -733 -8 -2195 l3 -2100 33 -99 c17 -54 32 -105 32 -114 0 -70 183
-267 300 -325 36 -17 87 -46 113 -64 55 -37 82 -45 234 -73 59 -11 151 -31
204 -44 125 -32 299 -48 524 -48 232 -1 365 13 490 52 55 17 138 37 185 45
101 16 158 36 220 74 25 16 80 42 124 57 46 17 95 44 120 65 22 20 58 45 79
56 52 26 272 237 312 298 18 27 42 59 54 70 12 11 38 51 57 90 18 38 48 88 64
110 24 32 36 65 54 155 13 63 37 167 52 230 27 113 27 120 28 435 0 259 -3
332 -16 385 -9 36 -28 119 -42 185 -38 169 -53 218 -81 256 -14 19 -40 66 -59
104 -38 77 -103 166 -213 288 -40 44 -73 83 -73 88 0 4 -28 25 -62 45 -35 21
-81 55 -104 76 -22 20 -71 51 -107 67 -37 17 -82 41 -100 55 -40 30 -92 51
-181 71 -37 8 -99 29 -138 46 -136 60 -154 61 -715 63 -502 2 -513 2 -540 22
l-28 21 0 661 0 661 21 22 c12 12 41 25 65 30 24 4 480 8 1013 9 973 0 1064 3
1126 36 49 25 147 130 160 170 7 22 21 57 30 79 42 94 36 168 -26 323 -35 88
-41 97 -88 123 -23 12 -58 35 -79 52 -80 62 -46 60 -1107 62 -531 2 -1041 -1
-1135 -5z m1059 -3125 c38 -8 86 -26 107 -39 20 -14 72 -39 116 -56 65 -26 92
-44 161 -109 69 -66 88 -91 117 -157 20 -44 48 -101 63 -129 l27 -50 3 -279
c4 -303 -3 -372 -43 -442 -14 -23 -34 -67 -45 -98 -43 -114 -217 -264 -363
-312 -45 -15 -103 -37 -128 -50 -81 -40 -157 -47 -468 -41 -197 4 -308 10
-358 21 -89 18 -198 77 -218 117 -23 44 -22 1446 1 1516 19 59 41 79 110 99
116 33 775 40 918 9z"/>
<path d="M35430 13200 c-101 -7 -170 -25 -184 -49 -4 -6 -29 -22 -56 -36 -49
-25 -57 -34 -134 -140 -53 -73 -68 -143 -56 -254 7 -61 14 -82 46 -129 61 -88
143 -171 198 -200 l51 -27 423 -3 c417 -4 423 -4 447 -25 18 -16 27 -39 35
-87 6 -43 10 -810 10 -2225 0 -2350 -3 -2233 54 -2308 13 -18 31 -48 39 -68
16 -38 37 -57 135 -121 73 -47 111 -57 208 -58 60 0 81 5 134 32 85 42 200
152 231 221 l24 52 3 2225 c1 1224 6 2245 10 2269 5 31 15 50 35 65 28 20 42
21 450 27 503 7 485 3 598 111 63 60 80 83 94 126 41 127 37 263 -10 380 -20
50 -32 64 -101 115 -109 79 -151 97 -252 107 -101 11 -2275 11 -2432 0z"/>
<path d="M50950 13199 c-160 -8 -277 -27 -331 -54 -14 -8 -72 -29 -130 -47
-100 -33 -107 -37 -180 -109 -81 -79 -80 -77 -138 -274 -47 -161 -46 -130 -46
-2420 0 -2263 -1 -2212 42 -2350 54 -175 68 -211 92 -233 14 -13 49 -45 76
-71 41 -39 66 -53 135 -76 47 -15 99 -35 115 -43 116 -58 237 -64 1420 -60
965 3 1033 5 1085 22 30 10 64 26 75 36 11 10 47 34 80 52 55 31 62 39 87 98
45 110 62 203 50 266 -21 101 -63 203 -94 227 -16 12 -51 41 -78 64 -27 23
-57 44 -67 47 -80 23 -201 26 -1102 26 -531 1 -986 5 -1009 9 -84 16 -77 -60
-80 874 -1 458 0 842 3 855 4 14 20 30 43 40 33 15 110 18 747 22 l710 5 55
28 c53 26 129 76 178 114 13 11 35 54 54 108 43 122 43 215 3 333 -25 72 -35
89 -74 120 -25 21 -54 47 -64 60 -57 69 -83 71 -831 72 -437 0 -681 4 -723 11
-106 18 -98 -39 -101 707 l-3 645 21 22 c12 13 38 26 58 30 21 4 444 7 942 6
864 -2 1121 5 1183 28 15 6 44 26 64 45 21 19 53 47 71 63 23 20 40 51 61 109
50 143 49 211 -7 359 -30 82 -44 101 -94 126 -21 11 -52 32 -70 48 -18 16 -58
37 -88 47 -51 17 -118 18 -1015 20 -528 1 -1034 -2 -1125 -7z"/>
<path d="M26723 13182 c-28 -10 -67 -33 -87 -50 -20 -18 -54 -41 -74 -51 -49
-25 -55 -32 -85 -111 -62 -161 -58 16 -55 -2460 l3 -2255 29 -130 c15 -71 36
-146 46 -165 17 -32 63 -81 196 -207 29 -28 69 -55 95 -63 24 -8 66 -30 93
-48 60 -42 104 -57 226 -77 52 -9 136 -27 185 -40 50 -13 122 -28 160 -34 101
-16 430 -33 500 -27 33 3 101 8 150 12 99 6 190 24 276 54 30 10 97 26 148 35
104 18 187 46 225 76 14 11 63 34 108 50 49 18 97 44 120 64 20 19 61 46 90
61 35 18 93 68 173 148 150 152 195 206 230 276 15 30 38 66 51 80 32 35 61
104 79 191 9 41 29 116 46 168 42 132 52 267 46 616 -5 309 -2 282 -67 510
-60 212 -71 242 -91 261 -12 10 -37 52 -56 92 -18 39 -54 95 -79 123 -24 28
-56 68 -69 89 -13 21 -40 50 -59 65 -20 15 -45 42 -56 61 -12 18 -46 47 -76
65 -31 17 -76 50 -102 72 -26 22 -74 53 -107 68 -33 15 -72 36 -86 48 -38 30
-103 56 -189 75 -41 10 -105 30 -141 47 -140 61 -155 62 -709 64 -450 1 -508
3 -536 18 -17 9 -34 24 -38 32 -3 9 -6 416 -6 903 0 557 -4 911 -10 952 -17
102 -48 187 -78 210 -112 86 -139 104 -177 121 -65 29 -178 34 -242 11z m1537
-3103 c37 -6 91 -25 125 -44 33 -18 89 -43 124 -56 45 -17 80 -40 120 -79 32
-30 69 -65 82 -77 13 -11 51 -74 83 -139 70 -140 75 -169 75 -464 1 -254 -11
-373 -43 -421 -13 -19 -40 -67 -59 -105 -35 -68 -79 -117 -182 -200 -56 -46
-91 -65 -150 -84 -22 -7 -83 -31 -135 -54 l-95 -41 -315 0 c-381 0 -471 12
-569 75 -100 65 -91 -14 -91 810 l0 726 25 51 c45 90 82 102 353 113 241 10
559 4 652 -11z"/>
<path d="M30382 13190 c-53 -8 -98 -33 -207 -117 -37 -28 -59 -56 -85 -108
l-35 -70 0 -2565 0 -2565 28 -67 c27 -62 35 -71 115 -129 129 -92 157 -102
266 -97 99 5 135 17 203 70 23 18 56 42 74 53 34 22 65 88 100 220 18 68 19
156 19 2519 0 2708 6 2461 -63 2640 -29 75 -33 80 -99 125 -143 95 -196 110
-316 91z"/>
<path d="M33155 13193 c-96 -11 -165 -27 -215 -48 -31 -13 -108 -36 -170 -51
-86 -21 -124 -36 -156 -60 -23 -18 -77 -49 -120 -68 -42 -20 -96 -54 -120 -76
-24 -22 -48 -40 -53 -40 -5 0 -41 -29 -80 -65 -39 -36 -76 -65 -81 -65 -5 0
-26 -25 -46 -55 -20 -30 -47 -61 -60 -70 -13 -8 -32 -32 -43 -53 -11 -20 -41
-64 -68 -98 -27 -33 -59 -88 -71 -121 -12 -33 -34 -78 -49 -99 -41 -62 -62
-116 -78 -207 -8 -46 -29 -138 -47 -203 l-33 -119 -3 -1290 c-3 -1301 -1
-1415 33 -1535 9 -30 29 -116 45 -191 28 -134 53 -203 84 -228 8 -7 27 -43 41
-81 15 -38 37 -84 51 -102 13 -18 41 -60 63 -93 111 -170 359 -393 527 -474
44 -21 94 -51 111 -65 36 -30 87 -50 198 -76 44 -10 102 -28 127 -39 87 -37
194 -53 353 -54 174 0 265 13 390 58 49 18 116 38 148 45 76 15 123 35 167 70
20 16 61 40 92 53 31 14 81 45 111 70 31 25 76 57 101 72 24 14 52 37 61 51 9
13 38 41 66 61 27 19 57 49 66 67 8 17 31 50 50 73 62 77 76 122 71 237 -4
105 -16 141 -64 199 -13 15 -31 43 -39 62 -9 18 -24 40 -33 48 -24 21 -136 66
-207 84 -53 13 -66 13 -124 -2 -36 -9 -70 -20 -76 -25 -6 -5 -36 -18 -68 -30
-40 -15 -67 -33 -89 -61 -18 -22 -48 -49 -68 -61 -19 -12 -55 -40 -80 -63 -29
-27 -72 -51 -120 -70 -41 -15 -97 -42 -125 -59 l-50 -31 -175 0 -175 0 -60 31
c-33 17 -94 46 -135 63 -61 25 -90 46 -155 110 -127 125 -153 161 -194 268
-21 54 -49 121 -62 148 l-24 50 0 1360 0 1360 23 44 c13 24 40 85 59 134 61
159 213 312 384 387 199 88 179 83 349 84 143 0 159 -2 195 -22 22 -12 76 -40
121 -61 44 -21 104 -59 132 -85 29 -25 69 -55 90 -65 20 -11 54 -38 76 -60 21
-23 44 -41 51 -41 6 0 38 -13 71 -29 135 -67 209 -69 328 -10 33 16 65 29 71
29 7 0 27 17 44 38 129 152 136 168 136 312 0 107 -11 136 -88 237 -58 75
-194 212 -242 243 -22 15 -62 46 -90 70 -27 24 -69 52 -91 62 -23 10 -62 35
-88 56 -33 28 -66 43 -118 56 -40 10 -125 36 -188 56 -63 21 -155 43 -205 49
-84 10 -292 13 -360 4z"/>
<path d="M39945 13188 c-60 -5 -150 -17 -200 -28 -49 -10 -151 -31 -225 -46
-179 -35 -223 -49 -282 -89 -27 -19 -68 -40 -90 -47 -62 -18 -297 -242 -312
-297 -2 -9 -12 -50 -21 -91 -9 -41 -21 -93 -28 -115 -8 -30 -12 -625 -14
-2318 -4 -2499 -8 -2309 55 -2471 23 -60 32 -73 71 -95 24 -14 59 -39 77 -54
52 -45 123 -67 212 -67 90 0 132 17 251 102 61 44 77 61 93 103 45 111 48 180
48 1061 l0 831 24 26 c39 42 92 51 233 38 174 -15 572 -14 724 3 84 10 156 25
215 45 49 17 131 40 182 51 99 22 140 38 184 75 15 13 58 33 95 46 46 15 81
35 113 64 25 23 61 50 80 60 33 17 280 261 280 276 0 4 19 29 42 56 23 26 52
73 65 103 14 30 44 84 69 120 36 53 47 83 65 165 12 55 30 123 40 151 40 108
49 182 56 459 6 285 -5 499 -32 590 -8 28 -25 88 -39 135 -14 47 -30 111 -36
142 -7 37 -24 75 -46 105 -18 27 -48 77 -65 113 -17 36 -49 84 -70 107 -22 24
-39 48 -39 55 0 21 -270 276 -315 297 -23 11 -59 35 -79 54 -20 19 -64 45 -99
58 -34 12 -105 44 -157 71 -76 39 -116 53 -200 68 -58 10 -141 30 -185 45
-146 49 -452 67 -740 43z m547 -839 c39 -6 98 -23 132 -38 33 -15 97 -40 141
-54 133 -45 294 -185 351 -306 20 -41 44 -86 54 -100 35 -49 43 -133 43 -436
0 -316 -8 -395 -49 -457 -13 -21 -35 -63 -48 -93 -34 -76 -86 -135 -186 -211
-58 -44 -104 -71 -147 -84 -34 -10 -99 -35 -146 -54 -115 -47 -254 -60 -537
-47 -294 13 -405 40 -486 119 l-34 33 0 788 0 788 24 26 c55 59 217 113 386
127 136 11 425 11 502 -1z"/>
<path d="M43840 13185 c-47 -8 -116 -25 -152 -39 -37 -13 -110 -34 -163 -46
-96 -20 -139 -38 -203 -85 -19 -13 -59 -34 -90 -45 -31 -12 -75 -39 -99 -61
-23 -21 -47 -39 -52 -39 -20 0 -260 -230 -287 -276 -16 -26 -48 -68 -71 -93
-25 -28 -51 -73 -65 -111 -13 -36 -40 -86 -60 -112 -40 -53 -39 -50 -63 -163
-10 -44 -32 -119 -51 -166 -18 -48 -39 -122 -45 -165 -17 -109 -25 -2678 -9
-2843 10 -109 21 -148 78 -301 12 -30 31 -88 42 -128 13 -44 32 -85 51 -106
16 -19 43 -65 60 -103 17 -37 51 -89 75 -115 24 -26 44 -52 44 -59 0 -11 44
-60 146 -163 94 -93 139 -133 174 -154 19 -11 48 -34 63 -50 16 -16 59 -42 95
-57 37 -16 90 -45 118 -67 41 -30 74 -44 165 -68 63 -16 143 -40 179 -53 95
-36 197 -50 355 -50 167 1 232 12 387 64 65 21 124 39 132 39 33 0 113 33 149
62 21 16 71 45 112 63 40 19 91 49 112 67 21 18 54 44 73 57 63 44 211 185
248 236 20 28 55 71 78 96 23 25 50 65 61 90 11 24 36 67 56 96 19 29 43 74
52 100 9 26 37 89 62 140 88 180 93 286 92 1772 -1 1443 -7 1568 -84 1716 -21
38 -51 107 -67 152 -16 45 -43 99 -59 119 -16 21 -43 66 -60 101 -17 35 -41
70 -54 79 -13 8 -42 43 -64 77 -42 64 -183 202 -283 275 -31 23 -60 47 -64 53
-3 6 -40 26 -80 45 -40 18 -96 49 -125 68 -46 33 -131 66 -166 66 -8 0 -67 18
-131 39 -65 22 -155 45 -202 50 -112 14 -304 12 -410 -4z m340 -825 c76 -9
102 -18 217 -75 81 -40 142 -78 160 -98 15 -18 48 -48 72 -67 24 -19 50 -48
58 -65 9 -16 32 -55 53 -85 59 -89 70 -115 98 -243 l26 -122 3 -1225 c4 -1313
4 -1311 -46 -1511 -26 -100 -122 -245 -231 -346 -67 -63 -159 -123 -186 -123
-5 0 -47 -19 -94 -42 l-84 -43 -137 -3 c-149 -5 -216 8 -295 53 -23 14 -67 34
-98 45 -54 21 -168 107 -211 160 -11 14 -35 41 -54 60 -18 19 -44 60 -58 90
-14 30 -35 69 -48 86 -13 17 -32 57 -42 90 -17 56 -18 131 -18 1434 0 1290 1
1379 18 1440 10 35 26 74 37 85 10 11 34 54 53 96 29 64 51 93 132 174 83 82
111 104 179 135 45 21 88 45 95 54 36 43 232 65 401 46z"/>
<path d="M47565 13194 c-138 -11 -254 -27 -342 -50 -54 -13 -151 -33 -217 -44
-116 -20 -170 -40 -231 -85 -16 -12 -52 -30 -80 -40 -57 -21 -160 -111 -250
-219 -52 -62 -55 -67 -71 -136 -7 -32 -21 -92 -31 -132 -17 -68 -18 -216 -21
-2328 -3 -2472 -6 -2311 55 -2462 31 -79 32 -80 116 -136 117 -79 135 -86 220
-90 100 -5 154 10 223 62 29 23 71 53 92 67 45 31 76 103 92 214 6 41 10 414
10 907 l0 836 25 30 c39 46 91 56 233 43 170 -16 561 -14 722 4 98 10 158 22
215 43 44 16 129 40 189 52 91 19 116 29 159 61 28 21 80 48 116 60 39 13 81
36 105 59 23 20 61 48 86 62 45 26 256 236 288 287 9 14 33 45 53 68 20 24 44
64 54 90 10 27 32 68 50 93 48 67 61 97 79 185 9 44 30 122 47 173 43 136 52
256 46 617 -5 321 -12 382 -56 499 -10 28 -26 88 -36 134 -21 103 -33 133 -82
197 -21 28 -45 70 -52 92 -8 23 -27 56 -43 73 -15 18 -39 47 -51 65 -56 83
-263 277 -332 313 -22 11 -49 30 -60 42 -24 26 -71 51 -141 74 -28 9 -73 31
-100 48 -61 39 -129 62 -224 78 -41 7 -116 25 -165 41 -50 16 -122 33 -160 39
-72 11 -442 21 -530 14z m496 -848 c41 -8 93 -23 115 -34 21 -10 75 -32 119
-47 118 -40 139 -54 271 -178 53 -51 79 -84 99 -130 15 -34 38 -76 50 -92 37
-50 46 -116 52 -387 6 -268 -6 -440 -32 -488 -8 -14 -32 -61 -54 -105 -21 -44
-57 -101 -79 -126 -67 -76 -193 -164 -269 -190 -38 -12 -106 -37 -152 -56
-112 -45 -246 -56 -528 -43 -298 13 -395 36 -483 117 l-40 35 0 788 0 788 35
31 c20 17 53 40 74 50 54 28 201 62 306 71 153 12 434 10 516 -4z"/>
<path d="M55265 13194 c-93 -11 -176 -29 -225 -49 -30 -13 -99 -33 -153 -44
-102 -22 -147 -41 -206 -85 -19 -14 -55 -32 -81 -41 -26 -9 -71 -36 -100 -61
-30 -25 -76 -60 -104 -78 -28 -18 -66 -50 -85 -72 -19 -21 -48 -49 -64 -61
-16 -12 -41 -39 -55 -60 -14 -21 -47 -63 -73 -93 -26 -30 -61 -84 -78 -120
-17 -36 -43 -80 -56 -99 -14 -19 -37 -73 -51 -120 -14 -47 -39 -120 -56 -161
-45 -110 -41 -170 17 -287 37 -73 58 -102 111 -149 82 -73 84 -75 162 -89 106
-20 285 8 322 50 10 11 43 47 73 80 41 45 63 81 86 138 16 42 41 91 55 107 14
17 39 57 57 90 20 38 63 90 119 144 88 84 130 112 205 136 22 7 55 21 73 32
56 34 130 48 262 48 138 0 190 -11 290 -59 36 -17 70 -31 77 -31 26 0 119 -49
143 -75 14 -15 46 -43 72 -62 37 -26 65 -63 119 -154 64 -108 72 -127 81 -197
13 -98 4 -284 -16 -341 -9 -24 -31 -64 -49 -90 -19 -25 -46 -67 -61 -93 -15
-27 -31 -48 -35 -48 -5 0 -40 -29 -80 -64 -58 -52 -83 -67 -143 -86 -40 -13
-94 -34 -120 -47 -65 -32 -152 -50 -282 -58 -60 -4 -137 -15 -172 -26 -56 -17
-68 -26 -107 -77 -25 -31 -54 -65 -66 -76 -38 -34 -61 -117 -61 -221 0 -147
11 -181 85 -267 36 -43 92 -93 128 -117 73 -47 101 -53 327 -70 150 -11 178
-20 277 -86 37 -25 72 -45 77 -45 6 0 45 -37 87 -83 96 -105 193 -282 208
-379 36 -243 11 -652 -43 -697 -7 -6 -34 -53 -60 -105 -38 -77 -59 -106 -125
-169 -72 -69 -160 -126 -193 -127 -7 0 -35 -12 -63 -26 -73 -37 -138 -53 -241
-61 -120 -8 -243 10 -314 46 -30 15 -86 39 -124 52 -93 32 -216 142 -286 255
-85 136 -87 142 -110 294 -43 292 -49 327 -75 385 -47 109 -60 129 -93 150
-19 11 -52 35 -73 54 -47 40 -123 61 -224 61 -111 -1 -172 -31 -310 -156 -63
-57 -87 -194 -74 -429 14 -253 32 -356 78 -450 21 -44 51 -114 66 -155 15 -41
40 -91 54 -110 15 -19 42 -62 59 -95 18 -33 55 -86 83 -119 27 -32 56 -71 64
-86 8 -15 31 -40 52 -56 21 -16 56 -47 78 -69 22 -22 60 -55 85 -72 25 -18 64
-48 87 -67 23 -19 63 -42 90 -52 26 -9 68 -32 93 -50 59 -41 107 -61 198 -80
41 -8 104 -26 141 -39 93 -34 143 -43 282 -55 157 -14 358 1 473 36 45 13 119
34 166 46 120 30 164 46 202 74 18 13 69 42 113 64 138 70 365 273 435 390 22
36 53 78 69 94 17 16 42 60 57 98 14 38 37 82 50 98 32 38 48 77 73 183 12 49
34 119 50 155 52 120 56 157 56 532 0 377 -4 409 -64 549 -15 36 -39 106 -51
155 -16 58 -36 107 -59 140 -19 28 -47 76 -62 108 -16 31 -48 79 -73 107 -25
28 -52 64 -60 79 -8 15 -29 41 -46 57 -49 46 -61 74 -45 110 13 33 157 229
176 240 6 4 26 40 44 79 18 39 46 88 62 108 30 36 37 54 86 198 14 41 37 107
51 147 39 107 53 290 38 479 -12 142 -22 183 -70 299 -12 28 -33 89 -47 136
-18 60 -37 99 -60 127 -19 22 -43 60 -54 84 -37 88 -258 328 -371 405 -36 24
-84 59 -107 77 -23 19 -69 43 -103 55 -35 11 -77 31 -94 44 -52 40 -87 54
-179 71 -48 9 -125 30 -170 47 -120 45 -369 70 -522 53z"/>
</g>
</svg>
